 <svg xmlns="http://www.w3.org/2000/svg" class="nav-icon" viewBox="0 0 24 24" fill="none"
     stroke="#3A3A3A" stroke-width="1.5" stroke-linecap="round" stroke-linejoin="round">

  <!-- zębatka -->
  <path d="M19.4 15a1.8 1.8 0 0 0 .4 2l.1.1a2 2 0 0 1-2.8 2.8l-.1-.1a1.8 1.8 0 0 0-2-.4 1.8 1.8 0 0 0-1 1.6V21a2 2 0 0 1-4 0v-.2a1.8 1.8 0 0 0-1-1.6 1.8 1.8 0 0 0-2 .4l-.1.1a2 2 0 0 1-2.8-2.8l.1-.1a1.8 1.8 0 0 0 .4-2 1.8 1.8 0 0 0-1.6-1H3a2 2 0 0 1 0-4h.2a1.8 1.8 0 0 0 1.6-1 1.8 1.8 0 0 0-.4-2l-.1-.1a2 2 0 0 1 2.8-2.8l.1.1a1.8 1.8 0 0 0 2 .4h.1a1.8 1.8 0 0 0 1-1.6V3a2 2 0 0 1 4 0v.2a1.8 1.8 0 0 0 1 1.6h.1a1.8 1.8 0 0 0 2-.4l.1-.1a2 2 0 0 1 2.8 2.8l-.1.1a1.8 1.8 0 0 0-.4 2c.2.6.8 1 1.6 1H21a2 2 0 0 1 0 4h-.2a1.8 1.8 0 0 0-1.4 1z"/>

  <!-- pogrubiony krzyż medyczny -->
  <path d="M12 9v6" />
  <path d="M9 12h6" />

</svg>
